<svg xmlns="http://www.w3.org/2000/svg" xmlns:xlink="http://www.w3.org/1999/xlink"><symbol id="icon-facebook" viewBox="0 0 430.113 430.114">
	<path id="Facebook" d="M158.081,83.3c0,10.839,0,59.218,0,59.218h-43.385v72.412h43.385v215.183h89.122V214.936h59.805
		c0,0,5.601-34.721,8.316-72.685c-7.784,0-67.784,0-67.784,0s0-42.127,0-49.511c0-7.4,9.717-17.354,19.321-17.354
		c9.586,0,29.818,0,48.557,0c0-9.859,0-43.924,0-75.385c-25.016,0-53.476,0-66.021,0C155.878-0.004,158.081,72.48,158.081,83.3z"/>
</symbol><symbol id="icon-telegram" viewBox="0 0 300 300">
	<path id="XMLID_497_" d="M5.299,144.645l69.126,25.8l26.756,86.047c1.712,5.511,8.451,7.548,12.924,3.891l38.532-31.412
		c4.039-3.291,9.792-3.455,14.013-0.391l69.498,50.457c4.785,3.478,11.564,0.856,12.764-4.926L299.823,29.22
		c1.31-6.316-4.896-11.585-10.91-9.259L5.218,129.402C-1.783,132.102-1.722,142.014,5.299,144.645z M96.869,156.711l135.098-83.207
		c2.428-1.491,4.926,1.792,2.841,3.726L123.313,180.87c-3.919,3.648-6.447,8.53-7.163,13.829l-3.798,28.146
		c-0.503,3.758-5.782,4.131-6.819,0.494l-14.607-51.325C89.253,166.16,91.691,159.907,96.869,156.711z"/>
</symbol><symbol id="icon-youtube" viewBox="0 0 22 16">
<path d="M20.882,1.449 C20.124,0.489 18.725,0.098 16.054,0.098 L6.358,0.098 C3.625,0.098 2.203,0.515 1.448,1.536 C0.712,2.532 0.712,3.998 0.712,6.026 L0.712,9.896 C0.712,13.827 1.585,15.824 6.358,15.824 L16.054,15.824 C18.371,15.824 19.654,15.479 20.485,14.633 C21.336,13.765 21.700,12.348 21.700,9.896 L21.700,6.026 C21.700,3.887 21.643,2.412 20.882,1.449 ZM14.186,8.496 L9.783,10.946 C9.685,11.001 9.577,11.028 9.470,11.028 C9.348,11.028 9.227,10.992 9.119,10.922 C8.916,10.793 8.793,10.559 8.793,10.307 L8.793,5.423 C8.793,5.171 8.916,4.937 9.118,4.806 C9.320,4.675 9.572,4.667 9.782,4.783 L14.185,7.217 C14.409,7.340 14.550,7.587 14.550,7.856 C14.550,8.124 14.410,8.371 14.186,8.496 Z"/>
</symbol></svg>